<svg id="Revampped" xmlns="http://www.w3.org/2000/svg" xmlns:xlink="http://www.w3.org/1999/xlink" viewBox="0 0 1792.37 520.35"><defs><style>.cls-1{fill:#0b6666;}.cls-2{fill:#fff;}.cls-3{mask:url(#mask);}.cls-4{filter:url(#luminosity-noclip);}</style><filter id="luminosity-noclip" x="-5.72" y="11.33" width="541.5" height="509.01" filterUnits="userSpaceOnUse" color-interpolation-filters="sRGB"><feFlood flood-color="#fff" result="bg"/><feBlend in="SourceGraphic" in2="bg"/></filter><mask id="mask" x="-5.7" y="11.33" width="541.5" height="509.01" maskUnits="userSpaceOnUse"><g class="cls-4"><g transform="translate(0.02)"><path d="M487.24,232l-6.93,39.49h6.93s6.48,14.72,13.38,31.34c8.16,19.63,18.73,37.48,16.21,45.66s-10.07,12.6-30.22,13.23-46,2.52-49.75-19.52-4.41-27.92-5-29.07-35.89,53-81.23,54.88-50.37-35.89-54.15-57.93c0,0,37.78-23.3,57.3-22.67s42.19,25.72,42.19,25.72l-.63-35.79S384,250.28,352.48,250.28s-58.56,27.08-58.56,27.08-3.78-86.9-10.7-159.94S265.59,11.33,265.59,11.33L249.84,46.89s10.08,26.79,18.27,81.23,9.44,156.8,9.44,156.8-30.22,28.33-63,58.56-57.3,59.82-94.45,85S56.53,463.12,37,453.67,4.9,405.19,23.16,367.4s46-79.34,45.33-81.86-60,56.68-71.78,119.65,21.41,85,49.75,88.78S122,471.3,157.91,436.67s91.15-87.81,116.49-105.16c0,0,4.41,46.6,35.89,60.67,26.39,11.8,58.25,9.23,78.72-5.88s30.85-30.86,30.85-30.86,3.86,28.84,23.38,37.65c9.6,4.34,36.58,6.81,53.44-.91,17.43-8,34.95-25.41,37.15-42.09,1-7.64,3.68-21.09.26-37.78-4.22-20.56-22.29-34.95-22.29-34.95l14.73-3.15Z"/></g></g></mask></defs><path class="cls-1" d="M797.24,172.53a74.47,74.47,0,0,1,16.44,47.56q0,24.22-11.89,42.59t-34.38,28.75q-22.49,10.38-53.19,10.38H584.07V0H708.6q30.71,0,53,10T795.3,37.62q11.44,17.73,11.46,40.21,0,26.39-14.06,44.11T755.3,147Q780.82,151.78,797.24,172.53Zm-152.63-48H700q21.62,0,33.29-9.73t11.67-27.89q0-18.16-11.67-28.1T700,48.86H644.61ZM740,242.14q12.33-10.38,12.33-29.4,0-19.45-13-30.49t-35-11H644.61v81.29h61Q727.63,252.52,740,242.14Z" transform="translate(0.02)"/><path class="cls-1" d="M834.21,116.75q14.47-28.11,39.35-43.24t55.56-15.14q26.8,0,46.92,10.81t32.21,27.24V62.27h61V301.81h-61v-35Q996.58,283.65,976,294.68t-47.35,11a101.76,101.76,0,0,1-55.13-15.56q-24.87-15.57-39.35-43.89t-14.49-65.08Q819.72,144.86,834.21,116.75ZM999.6,144.2A61,61,0,0,0,976.25,120a62.4,62.4,0,0,0-31.56-8.43,61.36,61.36,0,0,0-31.13,8.21q-14.28,8.22-23.14,24t-8.86,37.4q0,21.63,8.86,37.84t23.35,24.86a59.28,59.28,0,0,0,30.92,8.65,62.4,62.4,0,0,0,31.56-8.43,61,61,0,0,0,23.35-24.22q8.64-15.78,8.65-37.83T999.6,144.2Z" transform="translate(0.02)"/><path class="cls-1" d="M1330.82,62.27,1195.1,392h-64.43L1170,295.76,1074,62.27h67.89l61.83,167.33,62.7-167.33Z" transform="translate(0.02)"/><path class="cls-1" d="M1316.76,116.75q14.49-28.11,39.35-43.24t55.56-15.14q26.8,0,46.92,10.81t32.21,27.24V62.27h61V301.81h-61v-35q-11.67,16.86-32.21,27.89t-47.35,11a101.76,101.76,0,0,1-55.13-15.56q-24.87-15.57-39.35-43.89t-14.48-65.08Q1302.28,144.86,1316.76,116.75Zm165.39,27.45A61,61,0,0,0,1458.8,120a62.4,62.4,0,0,0-31.56-8.43,61.36,61.36,0,0,0-31.13,8.21q-14.28,8.22-23.14,24t-8.86,37.4q0,21.63,8.86,37.84t23.35,24.86a59.28,59.28,0,0,0,30.92,8.65,62.4,62.4,0,0,0,31.56-8.43,61,61,0,0,0,23.35-24.22q8.65-15.78,8.65-37.83T1482.15,144.2Z" transform="translate(0.02)"/><path class="cls-1" d="M1762.34,85.83q26.37,27,26.38,75.45V301.81h-60.54V169.5q0-28.55-14.26-43.89T1675,110.26q-25.08,0-39.56,15.35T1621,169.5V301.81h-60.54V62.27H1621V92.1a83.61,83.61,0,0,1,30.92-24.43,95.61,95.61,0,0,1,41.29-8.86Q1736,58.81,1762.34,85.83Z" transform="translate(0.02)"/><path class="cls-2" d="M653,499.49l-4.67,11.87c-8,5.09-17.6,7.63-28,7.63-18.66,0-36.26-11.66-36.26-33.5,0-24.17,22.9-39,61.28-39h7.21v-1.69a63.49,63.49,0,0,0-.42-8.27c-.64-5.73-5.3-10.82-13.57-10.82-8.91,0-14,5.73-14.63,15.48l-36,.21c.21-26.5,23.75-41.56,52.38-41.56,35.83,0,48.13,15.9,49.83,36.47.42,5.73.63,12.3.63,19.3V487.4A196,196,0,0,0,692.84,516H655.52Zm-.43-24V468.1c-17.17-1.27-29.47,3.18-29.47,14.42,0,6.79,5.3,10.6,12.93,10.6S652.55,487.4,652.55,475.52Z" transform="translate(0.02)"/><path class="cls-2" d="M803.75,435.87H766.21c-1.69-7.85-5.51-12.3-12.29-12.3-5.31,0-9.12,3.39-9.12,8.27,0,6.36,5.09,10.6,26.72,15.91,20.56,5.08,35.2,14,35.2,35.83,0,24.18-22.69,35.41-50.05,35.41-30.75,0-51.74-12.72-54.71-38.16H739.5c2.12,8.69,8.9,14.41,17,14.41,6.79,0,12.09-2.75,12.09-8.69,0-7.21-7.21-11.24-27.36-15.9-21.63-5.09-34.56-15.06-34.56-34.36,0-22.47,19.51-36.47,49.62-36.47C784.45,399.82,800.78,415.3,803.75,435.87Z" transform="translate(0.02)"/><path class="cls-2" d="M911.68,435.87H874.15c-1.7-7.85-5.51-12.3-12.3-12.3-5.3,0-9.12,3.39-9.12,8.27,0,6.36,5.09,10.6,26.72,15.91,20.57,5.08,35.2,14,35.2,35.83,0,24.18-22.69,35.41-50,35.41-30.75,0-51.74-12.72-54.71-38.16h37.53c2.12,8.69,8.91,14.41,17,14.41,6.78,0,12.08-2.75,12.08-8.69,0-7.21-7.21-11.24-27.35-15.9-21.63-5.09-34.57-15.06-34.57-34.36,0-22.47,19.51-36.47,49.62-36.47C892.39,399.82,908.72,415.3,911.68,435.87Z" transform="translate(0.02)"/><path class="cls-2" d="M1035.74,469H956.85c1.91,18.87,10.18,24.17,21,24.17s17.39-5.51,18.88-14.2h37.53c-6.57,25.65-27.78,40.07-56.83,40.07-32.44,0-58.31-19.29-58.31-59.16,0-33.08,22.69-60,60.43-60s56.83,28.84,56.83,58.1A102.89,102.89,0,0,1,1035.74,469Zm-77.62-23.33h38.39c-2.13-13.36-8.7-19.93-18.88-19.93C967.67,425.69,960.67,431.63,958.12,445.62Z" transform="translate(0.02)"/><path class="cls-2" d="M1143,435.87H1105.5c-1.69-7.85-5.51-12.3-12.3-12.3-5.3,0-9.11,3.39-9.11,8.27,0,6.36,5.08,10.6,26.71,15.91,20.57,5.08,35.2,14,35.2,35.83,0,24.18-22.69,35.41-50,35.41-30.75,0-51.74-12.72-54.71-38.16h37.53c2.12,8.69,8.91,14.41,17,14.41,6.78,0,12.09-2.75,12.09-8.69,0-7.21-7.21-11.24-27.36-15.9-21.63-5.09-34.56-15.06-34.56-34.36,0-22.47,19.51-36.47,49.62-36.47C1123.74,399.82,1140.07,415.3,1143,435.87Z" transform="translate(0.02)"/><path class="cls-2" d="M1251,435.87h-37.53c-1.7-7.85-5.51-12.3-12.3-12.3-5.3,0-9.12,3.39-9.12,8.27,0,6.36,5.09,10.6,26.72,15.91,20.57,5.08,35.2,14,35.2,35.83,0,24.18-22.69,35.41-50,35.41-30.75,0-51.74-12.72-54.71-38.16h37.53c2.12,8.69,8.91,14.41,17,14.41,6.79,0,12.09-2.75,12.09-8.69,0-7.21-7.21-11.24-27.35-15.9-21.63-5.09-34.57-15.06-34.57-34.36,0-22.47,19.51-36.47,49.62-36.47C1231.68,399.82,1248,415.3,1251,435.87Z" transform="translate(0.02)"/><path class="cls-2" d="M1448,449.87V516H1409.8V458.35a151.54,151.54,0,0,0-.85-15.48c-1.27-10.82-6.36-17.18-16.33-17.18-12.29,0-17.17,11.24-17.17,30.54V516h-38.17V458.35a151.54,151.54,0,0,0-.85-15.48c-1.27-10.82-6.36-17.18-16.33-17.18-12.3,0-17.17,11.24-17.17,30.54V516h-38.17V402.79h38.17V421l9.12-14.64c7-4.24,14-6.57,24.38-6.57,19.3,0,31.38,9.54,36.26,22.06l11.88-15.49c7-4.24,14-6.57,24.38-6.57,22.69,0,35.42,13.15,38,28.63C1447.76,434.17,1448,440.75,1448,449.87Z" transform="translate(0.02)"/><path class="cls-2" d="M1575.84,469H1497c1.91,18.87,10.18,24.17,21,24.17s17.39-5.51,18.87-14.2h37.53c-6.57,25.65-27.78,40.07-56.83,40.07-32.44,0-58.31-19.29-58.31-59.16,0-33.08,22.69-60,60.43-60s56.83,28.84,56.83,58.1A102.89,102.89,0,0,1,1575.84,469Zm-77.61-23.33h38.38c-2.12-13.36-8.7-19.93-18.87-19.93C1507.77,425.69,1500.77,431.63,1498.23,445.62Z" transform="translate(0.02)"/><path class="cls-2" d="M1703.92,452v64h-38.17V458.35c0-3.61,0-9.76-.42-15.48-.85-10.82-6.79-17.18-18.24-17.18-11.66,0-19.93,11.24-19.93,36.9V516H1589V402.79h38.17v17.6l10.18-14c7-4.24,15.05-6.57,25.44-6.57,23.33,0,37.11,11,40.08,30.75C1703.71,436.29,1703.92,442.87,1703.92,452Z" transform="translate(0.02)"/><path class="cls-2" d="M1767.32,469.16c0,3.82,0,8.06.22,11,.84,11.45,4.45,14,22.47,13.15v23.75a128.76,128.76,0,0,1-22.47,1.9c-28.21,0-36.69-8.69-38-26.08-.42-6.57-.42-11.87-.42-18.23V427.39h-18V403.64h18V374.38h38.16v29.26h25v23.75h-25Z" transform="translate(0.02)"/><polygon class="cls-1" points="322.28 193.3 446.96 146.07 442.23 163.07 316.61 211.87 322.28 193.3"/><polygon class="cls-1" points="185.01 266.02 154.15 245.88 177.45 217.54 205.79 237.06 185.01 266.02"/><path class="cls-2" d="M487.24,220.69l-6.93,39.48,7.08.36s6.33,14.37,13.23,31c8.16,19.64,18.73,37.48,16.21,45.67s-10.07,12.59-30.22,13.22-46,2.52-49.75-19.52-4.41-27.91-5-29.07-35.89,53-81.23,54.89-50.37-35.89-54.15-57.93c0,0,37.78-23.3,57.3-22.67s42.19,25.71,42.19,25.71L395.3,266S384,239,352.48,239,293.92,266,293.92,266s-3.78-86.89-10.7-159.94S265.59,0,265.59,0L249.84,35.56s10.08,26.79,18.27,81.23,9.44,156.79,9.44,156.79-30.22,28.34-63,58.56-57.3,59.82-94.45,85S56.53,451.78,37,442.34,4.9,393.85,23.16,356.07s46-79.34,45.33-81.86S14.55,329,2.8,392s15.32,86.9,43.66,90.68,71.78-22.67,107.67-57.3,98.7-96,124.05-113.35c0,0,6.3,55.86,32.11,68.86s51,11.11,71.47-4S422.38,334,422.38,334s5,40.93,24.56,49.75c9.6,4.33,32.88,4.78,49.74-2.93,17.43-8,28.32-24.32,29.6-33,1.13-7.62,3.68-21.08.25-37.78-4.21-20.56-15.74-48.52-15.74-48.52l15.74,1.3Z" transform="translate(0.02)"/><g class="cls-3"><path class="cls-1" d="M2.8,442.35v70.06a7.94,7.94,0,0,0,7.94,7.94H525.89a7.94,7.94,0,0,0,7.94-7.94V314.51l-16.91,47.86-41,13.85L440,366.77l-12-44.7-39.67,42.19-57.94,16.59L297.7,354.18l-20.78-55.41-177.57,154L35.12,470,2.8,420.93Z" transform="translate(0.02)"/></g><polygon class="cls-2" points="382.86 460.25 352 440.1 375.3 411.76 403.64 431.28 382.86 460.25"/><polygon class="cls-2" points="430.1 452.78 399.25 432.63 422.54 404.3 450.88 423.82 430.1 452.78"/><polygon class="cls-2" points="496.16 452.78 465.31 432.63 488.61 404.3 516.94 423.82 496.16 452.78"/></svg>