<svg id="Revampped" xmlns="http://www.w3.org/2000/svg" xmlns:xlink="http://www.w3.org/1999/xlink" viewBox="0 0 533.85 520.35"><defs><style>.cls-1{fill:#0b6666;}.cls-2{fill:#3d3c3e;}.cls-3{mask:url(#mask);}.cls-4{filter:url(#luminosity-noclip);}</style><filter id="luminosity-noclip" x="-5.72" y="11.33" width="541.5" height="509.01" filterUnits="userSpaceOnUse" color-interpolation-filters="sRGB"><feFlood flood-color="#fff" result="bg"/><feBlend in="SourceGraphic" in2="bg"/></filter><mask id="mask" x="-5.7" y="11.33" width="541.5" height="509.01" maskUnits="userSpaceOnUse"><g class="cls-4"><g transform="translate(0.02)"><path d="M487.24,232l-6.93,39.49h6.93s6.48,14.72,13.38,31.34c8.16,19.63,18.73,37.48,16.21,45.66s-10.07,12.6-30.22,13.23-46,2.52-49.75-19.52-4.41-27.92-5-29.07-35.89,53-81.23,54.88-50.37-35.89-54.15-57.93c0,0,37.78-23.3,57.3-22.67s42.19,25.72,42.19,25.72l-.63-35.79S384,250.28,352.48,250.28s-58.56,27.08-58.56,27.08-3.78-86.9-10.7-159.94S265.59,11.33,265.59,11.33L249.84,46.89s10.08,26.79,18.27,81.23,9.44,156.8,9.44,156.8-30.22,28.33-63,58.56-57.3,59.82-94.45,85S56.53,463.12,37,453.67,4.9,405.19,23.16,367.4s46-79.34,45.33-81.86-60,56.68-71.78,119.65,21.41,85,49.75,88.78S122,471.3,157.91,436.67s91.15-87.81,116.49-105.16c0,0,4.41,46.6,35.89,60.67,26.39,11.8,58.25,9.23,78.72-5.88s30.85-30.86,30.85-30.86,3.86,28.84,23.38,37.65c9.6,4.34,36.58,6.81,53.44-.91,17.43-8,34.95-25.41,37.15-42.09,1-7.64,3.68-21.09.26-37.78-4.22-20.56-22.29-34.95-22.29-34.95l14.73-3.15Z"/></g></g></mask></defs><polygon class="cls-1" points="322.28 193.3 446.96 146.07 442.23 163.07 316.61 211.87 322.28 193.3"/><polygon class="cls-1" points="185.01 266.02 154.15 245.88 177.45 217.54 205.79 237.06 185.01 266.02"/><path class="cls-2" d="M487.24,220.69l-6.93,39.48,7.08.36s6.33,14.37,13.23,31c8.16,19.64,18.73,37.48,16.21,45.67s-10.07,12.59-30.22,13.22-46,2.52-49.75-19.52-4.41-27.91-5-29.07-35.89,53-81.23,54.89-50.37-35.89-54.15-57.93c0,0,37.78-23.3,57.3-22.67s42.19,25.71,42.19,25.71L395.3,266S384,239,352.48,239,293.92,266,293.92,266s-3.78-86.89-10.7-159.94S265.59,0,265.59,0L249.84,35.56s10.08,26.79,18.27,81.23,9.44,156.79,9.44,156.79-30.22,28.34-63,58.56-57.3,59.82-94.45,85S56.53,451.78,37,442.34,4.9,393.85,23.16,356.07s46-79.34,45.33-81.86S14.55,329,2.8,392s15.32,86.9,43.66,90.68,71.78-22.67,107.67-57.3,98.7-96,124.05-113.35c0,0,6.3,55.86,32.11,68.86s51,11.11,71.47-4S422.38,334,422.38,334s5,40.93,24.56,49.75c9.6,4.33,32.88,4.78,49.74-2.93,17.43-8,28.32-24.32,29.6-33,1.13-7.62,3.68-21.08.25-37.78-4.21-20.56-15.74-48.52-15.74-48.52l15.74,1.3Z" transform="translate(0.02)"/><g class="cls-3"><path class="cls-1" d="M2.8,442.35v70.06a7.94,7.94,0,0,0,7.94,7.94H525.89a7.94,7.94,0,0,0,7.94-7.94V314.51l-16.91,47.86-41,13.85L440,366.77l-12-44.7-39.67,42.19-57.94,16.59L297.7,354.18l-20.78-55.41-177.57,154L35.12,470,2.8,420.93Z" transform="translate(0.02)"/></g><polygon class="cls-2" points="382.86 460.25 352 440.1 375.3 411.76 403.64 431.28 382.86 460.25"/><polygon class="cls-2" points="430.1 452.78 399.25 432.63 422.54 404.3 450.88 423.82 430.1 452.78"/><polygon class="cls-2" points="496.16 452.78 465.31 432.63 488.61 404.3 516.94 423.82 496.16 452.78"/></svg>