<svg id="Revampped" xmlns="http://www.w3.org/2000/svg" viewBox="0 0 1217.19 563.32"><defs><style>.cls-1{fill:#0b6666;}.cls-2{font-size:212.06px;fill:#3b3b3c;font-family:Aileron-Black, Aileron;font-weight:800;}</style></defs><path class="cls-1" d="M213.18,172.53a74.51,74.51,0,0,1,16.43,47.56q0,24.22-11.89,42.59t-34.37,28.75q-22.48,10.38-53.19,10.38H0V0H124.54q30.7,0,53,10t33.73,27.67q11.44,17.73,11.46,40.21,0,26.39-14.06,44.11T171.24,147Q196.76,151.78,213.18,172.53Zm-152.63-48h55.34q21.62,0,33.3-9.73t11.67-27.89q0-18.16-11.67-28.1t-33.3-10H60.55Zm95.34,117.61q12.33-10.38,12.32-29.4,0-19.45-13-30.49t-35-11H60.55v81.29h61Q143.57,252.52,155.89,242.14Z" transform="translate(6.36)"/><path class="cls-1" d="M250.15,116.75q14.47-28.11,39.35-43.24t55.56-15.14q26.81,0,46.91,10.81t32.22,27.24V62.27h61V301.81h-61v-35Q412.51,283.65,392,294.68t-47.34,11a101.76,101.76,0,0,1-55.13-15.56q-24.87-15.57-39.35-43.89t-14.49-65.08Q235.66,144.86,250.15,116.75ZM415.54,144.2A61,61,0,0,0,392.19,120a62.4,62.4,0,0,0-31.56-8.43,61.4,61.4,0,0,0-31.14,8.21q-14.26,8.22-23.13,24t-8.86,37.4q0,21.63,8.86,37.84t23.35,24.86a59.25,59.25,0,0,0,30.92,8.65,62.4,62.4,0,0,0,31.56-8.43,61,61,0,0,0,23.35-24.22q8.64-15.78,8.65-37.83T415.54,144.2Z" transform="translate(6.36)"/><path class="cls-1" d="M746.75,62.27,611,392H546.61l39.29-96.23-96-233.49H557.8L619.63,229.6l62.7-167.33Z" transform="translate(6.36)"/><path class="cls-1" d="M732.7,116.75q14.47-28.11,39.35-43.24t55.56-15.14q26.8,0,46.92,10.81t32.21,27.24V62.27h61V301.81h-61v-35q-11.67,16.86-32.21,27.89t-47.35,11a101.76,101.76,0,0,1-55.13-15.56q-24.87-15.57-39.35-43.89t-14.49-65.08Q718.21,144.86,732.7,116.75ZM898.09,144.2A61,61,0,0,0,874.74,120a62.4,62.4,0,0,0-31.56-8.43A61.43,61.43,0,0,0,812,119.77q-14.26,8.22-23.13,24t-8.86,37.4q0,21.63,8.86,37.84t23.35,24.86a59.25,59.25,0,0,0,30.92,8.65,62.4,62.4,0,0,0,31.56-8.43,61,61,0,0,0,23.35-24.22q8.64-15.78,8.65-37.83T898.09,144.2Z" transform="translate(6.36)"/><path class="cls-1" d="M1178.28,85.83q26.37,27,26.38,75.45V301.81h-60.54V169.5q0-28.55-14.27-43.89t-38.91-15.35q-25.08,0-39.57,15.35t-14.48,43.89V301.81H976.35V62.27h60.54V92.1a83.57,83.57,0,0,1,30.91-24.43,95.66,95.66,0,0,1,41.3-8.86Q1151.91,58.81,1178.28,85.83Z" transform="translate(6.36)"/><text class="cls-2" transform="translate(0 516.03)">assessment</text></svg>