<svg id="Layer_1" data-name="Layer 1" xmlns="http://www.w3.org/2000/svg" viewBox="0 0 600 666.67"><defs><style>.cls-1{fill:#fff;fill-rule:evenodd;}</style></defs><path class="cls-1" d="M133.33,133.33A133.34,133.34,0,0,1,266.67,0H450A150,150,0,0,1,600,150V516.67a150,150,0,0,1-150,150H266.67A133.34,133.34,0,0,1,133.33,533.33V500A33.34,33.34,0,0,1,200,500v33.33A66.67,66.67,0,0,0,266.67,600H450a83.33,83.33,0,0,0,83.33-83.33V150A83.33,83.33,0,0,0,450,66.67H266.67A66.66,66.66,0,0,0,200,133.33v33.34a33.34,33.34,0,0,1-66.67,0Zm143.1,76.43a33.35,33.35,0,0,1,47.14,0l100,100a33.33,33.33,0,0,1,0,47.14l-100,100a33.33,33.33,0,0,1-47.14-47.14l43.1-43.09H33.33a33.34,33.34,0,0,1,0-66.67h286.2l-43.1-43.1A33.33,33.33,0,0,1,276.43,209.76Z"/></svg>