<svg id="Layer_1" data-name="Layer 1" xmlns="http://www.w3.org/2000/svg" viewBox="0 0 701.74 703.39"><defs><style>.cls-1{fill:#fff;stroke:#fff;stroke-miterlimit:10;stroke-width:16px;}</style></defs><g id="_-Product-Icons" data-name="ðŸ”-Product-Icons"><g id="ic_fluent_signature_28_regular" data-name="ic fluent signature 28 regular"><path id="_-Color" data-name="ðŸŽ¨-Color" class="cls-1" d="M421.73,551.86l7.71-.06c34.87,0,53.18,14.45,75.78,48.69l11.25,17.38c8.77,13,14.24,18.43,21.14,21.27,12.36,5.09,22.61,2.59,60.24-15.53L609.37,618c23.53-11.55,39.59-18.16,57.73-22.7a21.43,21.43,0,0,1,10.4,41.58c-11.28,2.82-22.09,6.86-36.22,13.38l-33.11,15.92c-44.79,21.16-60,23.67-86.89,12.58-17.86-7.36-28-18-42.88-40.73l-5.56-8.68c-16-25.29-24.66-33.59-40-34.59l-3.4-.1c-15.66,0-18.76,2-78.3,46.14-49.78,36.94-87.74,54.59-136,54.59q-88.27,0-166.2-32.43l82.35-19a401.7,401.7,0,0,0,83.85,8.61c36.88,0,67.44-14.21,110.48-46.14l33.14-24.46c36.33-26.4,44.41-29.67,63-30.07Zm179.92-508a122.45,122.45,0,0,1,0,173.17l-29.59,29.58c32.92,40.05,31.73,82.49,1.13,113.18l-85.74,85.74h0a21.43,21.43,0,1,1-30.29-30.32l85.68-85.68c13.86-13.9,15.46-31.16-1.14-52.53L239,579.69a64.28,64.28,0,0,1-31,17.18L34.26,637a21.42,21.42,0,0,1-25.69-25.7L48.66,437.53a64.28,64.28,0,0,1,17.18-31L428.49,43.86A122.45,122.45,0,0,1,601.65,43.86ZM458.79,74.17,96.15,436.83a21.4,21.4,0,0,0-5.73,10.34L58,587.5l140.33-32.39a21.38,21.38,0,0,0,10.34-5.72L571.34,186.72A79.58,79.58,0,1,0,458.79,74.17Z"/></g></g></svg>